<?xml version="1.0" encoding="utf-8"?>
<!-- Generator: Adobe Illustrator 29.5.0, SVG Export Plug-In . SVG Version: 9.03 Build 0)  -->
<svg version="1.1" id="Warstwa_3" xmlns="http://www.w3.org/2000/svg" xmlns:xlink="http://www.w3.org/1999/xlink" x="0px" y="0px"
	 viewBox="0 0 283.5 283.5" style="enable-background:new 0 0 283.5 283.5;" xml:space="preserve">
<style type="text/css">
	.Dodaj_x0020_cień{fill:none;}
	.Okrągłe_x0020_narożniki_x0020__x0028_2_x0020_pkt_x002E__x0029_{fill:#FFFFFF;stroke:#000000;stroke-miterlimit:10;}
	.Aktywne_x0020_odbicie_x0020_X{fill:none;}
	.Miękka_x0020_faza{fill:url(#SVGID_1_);}
	.Zmierzch{fill:#FFFFFF;}
	.Foliage_GS{fill:#FFDD00;}
	.Pompadour_GS{fill-rule:evenodd;clip-rule:evenodd;fill:#51AEE2;}
	.st0{fill:#ffffff;}
	.st1{fill:#ffffff;}
	.st2{display:none;fill:#ffffff;}
	.st3{display:none;fill:#ffffff;}
	.st4{display:none;fill:#ffffff;}
	.st5{display:none;fill:#ffffff;}
	.st6{display:none;fill:#ffffff;}
</style>
<linearGradient id="SVGID_1_" gradientUnits="userSpaceOnUse" x1="0" y1="0" x2="0.7071" y2="0.7071">
	<stop  offset="0" style="stop-color:#E6E6EB"/>
	<stop  offset="0.1738" style="stop-color:#E2E2E6"/>
	<stop  offset="0.352" style="stop-color:#D5D4D8"/>
	<stop  offset="0.5323" style="stop-color:#C0BFC2"/>
	<stop  offset="0.7139" style="stop-color:#A4A2A4"/>
	<stop  offset="0.8949" style="stop-color:#828282"/>
	<stop  offset="1" style="stop-color:#6B6E6E"/>
</linearGradient>
<path class="st0" d="M183.3,142.6v26.2c0,0.8,1.7,3,2.5,3.5c2.7,1.8,9.7,2.1,11.5-1.1c0.1-0.2,0.7-2,0.7-2.1v-26.5h25.3
	c0.5,0,2.6,0.6,3.2,0.8c10.9,4,9.4,19.5-1.1,22.9l11.1,16.6h-11.8c-0.1,0-0.3,0.3-0.5,0.2c-0.4-0.2-0.6-0.5-0.9-0.8
	c-4.1-4.9-7.2-11.7-11.2-16.8v-7.5h8.6c0.3,0,1.6-1.2,1.8-1.6c0.6-1.1,0.7-2.8,0-3.9c-0.2-0.2-1.4-1-1.5-1h-12.2
	c0,0-0.4,0.4-0.4,0.4v19.3c0,3.1-3.7,7.8-6.3,9.3c-6.9,3.9-20.6,3.1-26-3.3c-1-1.2-3.4-5.7-3.4-7.1v-27.4H183.3z"/>
<path class="st0" d="M103.6,142.6l14.6,24.7v-24.7h10.1v40.3h-10.5c-0.1,0-0.3,0.3-0.5,0.2l-0.6-0.5l-13.3-22.1l-2.1-3.1v25.5H90.7
	V143c0,0,0.4-0.4,0.4-0.4H103.6z"/>
<path class="st0" d="M252.1,158.5l18.2,0c0.2,0,0.5,0.3,0.5,0.4v8.2c0,0-0.4,0.4-0.4,0.4h-18.3v6.8h21.8v8.5h-32.8V143
	c0,0,0.4-0.4,0.4-0.4h32.4v8.8h-21.8V158.5C252,158.6,252,158.6,252.1,158.5z"/>
<polygon class="st0" points="86.5,151.4 64.4,151.4 64.4,158.5 83.1,158.5 83.1,167.5 64.4,167.5 64.4,174.3 86.7,174.3 86.7,182.8 
	53.6,182.8 53.6,142.6 86.7,142.6 86.7,151.1 "/>
<path class="st0" d="M19.9,142.6l9.2,24.1l9.2-24.1h11l-16.1,40.1c-0.1,0.3-0.4,0.3-0.7,0.3c-2.3,0-4.8-0.5-7.1,0.1L8.9,142.6H19.9z
	"/>
<path class="st0" d="M168.9,142.6v8.8h-12.3c0,0-0.4,0.4-0.4,0.4v31h-10.5v-31.5h-12.7v-8.8H168.9z"/>
<path class="st0" d="M154.7,140c-0.8,0.1-3.9,0.1-4.7,0c-0.2,0-0.7-0.2-0.7-0.4v-5.1c0-0.6-2-0.6-2,0v5.1c0,0.3-0.7,0.4-1,0.4
	c-0.6,0.1-3.8,0.1-3.8-0.4v-5.8h-1.7v5.8c0,0-0.4,0.4-0.4,0.4H136v-5.8c0-0.6-2-0.6-2,0v5.4c0,0-0.4,0.4-0.4,0.4h-4.4v-5.8
	c0-0.6-2-0.6-2,0v5.8c-1.2-0.2-4.7,1-5.3-0.3c0.9-2.8,0.2-6.1,0.4-9.1h31.7c0.3,2.2-0.4,5.7,0.1,7.8c0.2,0.6,0.5,0.8,0.8,1.3
	L154.7,140z"/>
<path class="st0" d="M171.1,116.5c0.1-0.3,0.6-0.5,0.7-0.9c0.3-0.6,0.3-3.1,0.2-3.8c-0.1-0.8-0.9-1.3-0.5-2.1
	c0.4-0.7,3.8-2.5,4.8-2.9c0.6-0.2,3-1.2,3.3-1c0.2,0.1,0.7,2,0.8,2.4c1.1,5-1,11.2-7,10.8c0.1,0.6,0.6,0.5,1,0.6
	c1.1,0.2,2.2,0.4,3.3,0.6c0.3,0.1,0.3,0.5,0.2,0.7c-0.2,0.5-5.3,1.8-4.8,3.5l5.5-2.3h4.7c-0.1,1.9-1.6,4.1-3.1,5.2
	c-1,0.7-4.6,2-5.7,1.4c-0.6-0.3-3.3-5.9-4-7c-2.1-3.4-5.2-5.2-3.4-9.7c0.4-0.9,1.6-3.3,2.7-3.2c0.1,0,1.2,2.4,1.3,2.7
	c0.2,1.4-0.1,3.2,0,4.7C171,116.5,170.9,116.8,171.1,116.5z"/>
<path class="st0" d="M145.4,112.8c-1-1.1,0.6-3.3,2.1-3.3c2.7-0.1,8.6,2.8,11.1,4.2c8.2,4.8,15.5,15.1,16,24.9
	c0.1,1.7-1.8,1.4-3.3,1.3c-1.8-0.2-1.1-1.7-1.3-3c-1.5-9.8-9.9-18.6-18.9-22.1C149.7,114.2,146.2,113.5,145.4,112.8z"/>
<path class="st0" d="M131.1,110.1c0.7,0.6,1.3,2.2,0.3,2.9c-0.8,0.6-4.1,1.2-5.4,1.7c-9.9,3.9-18.9,13.6-19,24.8
	c-0.9,0.4-3.5,0.6-4.2-0.1c-0.6-0.6,0.2-3.5,0.4-4.5c2.6-11.3,10.7-20.4,21.6-24.3C126.3,110.1,129.9,109,131.1,110.1z"/>
<path class="st0" d="M104.6,124.4c0.2-1.7-5.4-3.2-5.4-3.5c0.6-0.6,1.7-0.9,2.5-1.1c0.8-0.2,1.9,0.2,2.3-0.7c-4-0.2-6.8-2-7.3-6.1
	c-0.2-1.3-0.3-6.4,1.3-6.9c1.3-0.4,8.1,2.8,8,4.3c0,0.3-0.4,0.7-0.5,1.2c-0.2,1.6-0.2,4.1,1,5.2c0.1-1.6-0.3-3.3-0.1-4.9
	c0.1-0.6,1-2.9,1.4-3.1c0.4-0.3,0.4-0.1,0.7,0.1c0.7,0.5,2,2.9,2.2,3.7c0.9,3.5-0.6,4.2-2.3,6.7C107.1,121,105.7,122.9,104.6,124.4z
	"/>
<path class="st0" d="M138.8,100.6c0.1,0,0.2,0.9,0.4,1.2c0.3,0.6,0.8,1.1,1.1,1.7c0.5,1,0.5,2.6,0.5,3.7c0.1,1.6,0.2,5.4,0,6.8
	c-0.1,0.3-0.1,0.5-0.5,0.7c-0.5,0.2-3.7,0.1-3.9-0.2c-0.3-0.4-0.2-9-0.1-10.1c0.1-0.7,1.3-3,1.8-3.6
	C138.3,100.7,138.6,100.5,138.8,100.6z"/>
<path class="st0" d="M140.8,128.1H136l0.3-10.8c1.1,0.1,2.2-0.1,3.3,0c0.6,0,0.9,0.1,1,0.7l0.5,9.1L140.8,128.1z"/>
<path class="st0" d="M104.6,124.4c0,0,0,0.8-0.1,1.1c-0.4,1.1-1.1,3-2.3,3.1c-2.8,0.3-4.9-0.5-6.7-2.7c-0.3-0.4-2.6-3.8-1.3-3.8h4.5
	c0.2,0,2.6,0.8,3,1C102.1,123.3,104.4,125,104.6,124.4z"/>
<path class="st0" d="M142.5,128.1c0.3-3.2-0.4-6.3-0.8-9.5c-0.2-1.2,1.8,0.5,2.1,0.7c2,1.7,3.7,5.2,3.8,7.8c0,0.3-0.1,1-0.4,1H142.5
	z"/>
<path class="st0" d="M129.5,128.1c0.2-3.9,1.9-8.4,5.5-10.2l-0.7,9.5c0,0.2-0.3,0.7-0.4,0.7H129.5z"/>
<path class="st1" d="M130.1,120.8c-1.4,2.3-1.9,4.7-2.3,7.3l-3.1,0c0.3-2.5,2.5-5.2,4.4-6.8C129.4,121.1,129.5,120.6,130.1,120.8z"
	/>
<path class="st0" d="M152.4,127.8l-0.3,0.3c-0.7-0.1-2.7,0.3-3-0.3c-0.1-0.2-0.6-3.2-0.8-4c-0.3-0.9-0.6-1.7-1-2.5
	c0.5-0.1,0.7,0.3,1,0.6C149.4,122.7,152.6,126.6,152.4,127.8z"/>
<path class="st2" d="M171.1,116.5c-0.1,0.2,0.2,0.7-0.3,0.6c0-0.3-0.1-0.8,0.3-0.8V116.5z"/>
<path class="st3" d="M152.2,128.1l0.3-0.3L152.2,128.1z"/>
<path class="st4" d="M154.7,140l0.3-0.3L154.7,140z"/>
<path class="st5" d="M86.5,151.4l0.3-0.3L86.5,151.4z"/>
<polygon class="st6" points="252.1,158.5 252,158.7 251.8,158.6 "/>
</svg>
